<?xml version="1.0" encoding="UTF-8" standalone="no"?>
<svg
   xmlns:dc="http://purl.org/dc/elements/1.1/"
   xmlns:cc="http://creativecommons.org/ns#"
   xmlns:rdf="http://www.w3.org/1999/02/22-rdf-syntax-ns#"
   xmlns:svg="http://www.w3.org/2000/svg"
   xmlns="http://www.w3.org/2000/svg"
   xmlns:sodipodi="http://sodipodi.sourceforge.net/DTD/sodipodi-0.dtd"
   xmlns:inkscape="http://www.inkscape.org/namespaces/inkscape"
   viewBox="0 0 21 21"
   height="21"
   width="21"
   id="svg2"
   version="1.1"
   inkscape:version="0.91 r13725"
   sodipodi:docname="Square15_318CE7.svg">
  <metadata
     id="metadata16">
    <rdf:RDF>
      <cc:Work
         rdf:about="">
        <dc:format>image/svg+xml</dc:format>
        <dc:type
           rdf:resource="http://purl.org/dc/dcmitype/StillImage" />
        <dc:title>square-15.svg</dc:title>
      </cc:Work>
    </rdf:RDF>
  </metadata>
  <defs
     id="defs14" />
  <sodipodi:namedview
     pagecolor="#ffffff"
     bordercolor="#666666"
     borderopacity="1"
     objecttolerance="10"
     gridtolerance="10"
     guidetolerance="10"
     inkscape:pageopacity="0"
     inkscape:pageshadow="2"
     inkscape:window-width="1920"
     inkscape:window-height="1017"
     id="namedview12"
     showgrid="false"
     inkscape:zoom="11.238095"
     inkscape:cx="-4.6716104"
     inkscape:cy="10.570678"
     inkscape:window-x="1358"
     inkscape:window-y="-8"
     inkscape:window-maximized="1"
     inkscape:current-layer="svg2" />
  <title
     id="title4">square-15.svg</title>
  <rect
     fill="none"
     x="0"
     y="0"
     width="21"
     height="21"
     id="rect6" />
  <path
     fill="rgba(255,255,255,0.75)"
     transform="translate(3 3)"
     d="M13,14H2c-0.5523,0-1-0.4477-1-1V2c0-0.5523,0.4477-1,1-1h11c0.5523,0,1,0.4477,1,1v11C14,13.5523,13.5523,14,13,14z"
     style="stroke-linejoin:round;stroke-miterlimit:4;"
     stroke="rgba(255,255,255,0.75)"
     stroke-width="2"
     id="path8" />
  <path
     fill="#475bcc"
     transform="translate(3 3)"
     d="M13,14H2c-0.5523,0-1-0.4477-1-1V2c0-0.5523,0.4477-1,1-1h11c0.5523,0,1,0.4477,1,1v11C14,13.5523,13.5523,14,13,14z"
     id="path10"
     style="fill:#318ce7;fill-opacity:1" />
</svg>
